<svg width="54" height="56" viewBox="0 0 54 56" fill="none" xmlns="http://www.w3.org/2000/svg">
<path d="M18.7483 11.6278C18.7483 12.0323 18.909 12.4202 19.195 12.7063C19.481 12.9923 19.869 13.153 20.2735 13.153C20.678 13.153 21.0659 12.9923 21.352 12.7063C21.638 12.4202 21.7987 12.0323 21.7987 11.6278C21.7987 11.2233 21.638 10.8353 21.352 10.5493C21.0659 10.2633 20.678 10.1026 20.2735 10.1026C19.869 10.1026 19.481 10.2633 19.195 10.5493C18.909 10.8353 18.7483 11.2233 18.7483 11.6278ZM21.9625 13.6879C21.9625 14.0924 22.1232 14.4803 22.4092 14.7664C22.6952 15.0524 23.0832 15.2131 23.4877 15.2131C23.8922 15.2131 24.2801 15.0524 24.5661 14.7664C24.8522 14.4803 25.0129 14.0924 25.0129 13.6879C25.0129 13.2834 24.8522 12.8955 24.5661 12.6094C24.2801 12.3234 23.8922 12.1627 23.4877 12.1627C23.0832 12.1627 22.6952 12.3234 22.4092 12.6094C22.1232 12.8955 21.9625 13.2834 21.9625 13.6879ZM15.6737 29.9168C16.897 30.2784 18.2223 30.2086 19.6492 29.7086C19.8176 27.1617 19.2962 25.1581 18.3532 25.026C17.3186 24.8807 16.1501 27.04 15.6737 29.9168ZM42.4258 40.6546C43.543 42.1183 44.4069 44.0942 44.8914 46.3701C46.5495 45.0141 48.5583 44.2206 50.7234 44.2206C51.5164 44.2206 52.2892 44.3273 53.0309 44.5291C48.8369 45.6693 45.6186 49.8507 45.1077 55.0166H14.6004C14.23 53.5689 14.0444 52.0803 14.0479 50.586C14.0479 47.3921 14.8686 44.4749 16.221 42.2516C15.3444 39.2283 14.8541 35.8474 14.8541 32.2803C14.8541 31.4919 14.8778 30.7121 14.9251 29.9433C8.85143 28.5574 4.23808 25.21 2.95483 21.0961C2.51165 21.0412 2.08381 20.8987 1.69619 20.677C1.30857 20.4552 0.968897 20.1586 0.696926 19.8044C0.424955 19.4502 0.226109 19.0455 0.11195 18.6137C-0.00220886 18.182 -0.0294035 17.7319 0.0319474 17.2895C0.0932983 16.8472 0.241971 16.4215 0.469321 16.0371C0.69667 15.6527 0.998162 15.3174 1.35627 15.0506C1.71437 14.7838 2.12194 14.5908 2.55528 14.4829C2.98863 14.375 3.4391 14.3543 3.8805 14.4221C6.59464 10.0164 13.316 6.89851 21.1781 6.89851C23.496 6.89851 25.7142 7.16958 27.7599 7.66442C27.9929 3.83602 28.8955 0.983459 29.9717 0.983459C31.1909 0.983459 32.1858 4.64057 32.2406 9.2297L32.4568 9.33351C34.2246 5.61353 36.3152 3.08683 37.3557 3.52862C38.4642 3.99924 37.9768 7.67019 36.2841 11.8533C37.5708 12.9975 38.5461 14.2946 39.1315 15.6932C41.751 19.919 43.374 25.7902 43.374 32.2809C43.374 35.2321 43.0383 38.0558 42.4258 40.6546Z" fill="url(#paint0_linear_1_244)"/>
<defs>
<linearGradient id="paint0_linear_1_244" x1="-1.82133" y1="1.91702" x2="46.241" y2="24.3289" gradientUnits="userSpaceOnUse">
<stop stop-color="#CD8B65"/>
<stop offset="1" stop-color="#BB6B3D"/>
</linearGradient>
</defs>
</svg>
